<svg xmlns="http://www.w3.org/2000/svg" xmlns:xlink="http://www.w3.org/1999/xlink" preserveAspectRatio="xMidYMid" width="27.97" height="19.97" viewBox="0 0 27.97 19.97">
  <defs>
    <style>
      .cls-1 {
        fill: #fc0;
        fill-rule: evenodd;
      }
    </style>
  </defs>
  <path d="M27.600,9.014 L19.273,0.365 C18.765,-0.163 17.941,-0.163 17.433,0.365 C16.925,0.893 16.925,1.749 17.433,2.276 L23.539,8.618 L1.301,8.618 C0.582,8.618 -0.000,9.223 -0.000,9.969 C-0.000,10.716 0.582,11.321 1.301,11.321 L23.539,11.321 L17.433,17.663 C16.925,18.190 16.925,19.046 17.433,19.574 C17.687,19.838 18.020,19.970 18.353,19.970 C18.686,19.970 19.019,19.838 19.273,19.574 L27.600,10.925 C28.108,10.398 28.108,9.542 27.600,9.014 Z" class="cls-1"/>
</svg>
