<svg xmlns="http://www.w3.org/2000/svg" xmlns:xlink="http://www.w3.org/1999/xlink" preserveAspectRatio="xMidYMid" width="26" height="26" viewBox="0 0 26 26">
  <defs>
    <style>
      .cls-1 {
        fill: #fc0;
        fill-rule: evenodd;
      }
    </style>
  </defs>
  <path d="M13.000,25.999 C5.820,25.999 -0.000,20.179 -0.000,12.999 C-0.000,5.820 5.820,-0.001 13.000,-0.001 C20.180,-0.001 26.000,5.820 26.000,12.999 C26.000,20.179 20.180,25.999 13.000,25.999 ZM13.000,1.624 C6.728,1.624 1.625,6.727 1.625,12.999 C1.625,19.271 6.728,24.374 13.000,24.374 C19.272,24.374 24.375,19.271 24.375,12.999 C24.375,6.727 19.272,1.624 13.000,1.624 ZM21.254,15.367 L20.240,15.367 L19.296,11.827 L18.356,15.367 L17.319,15.367 L16.188,10.632 L17.168,10.632 L17.882,13.884 L18.747,10.632 L19.884,10.632 L20.715,13.940 L21.442,10.632 L22.404,10.632 L21.254,15.367 ZM13.995,15.367 L13.052,11.827 L12.112,15.367 L11.075,15.367 L9.944,10.632 L10.923,10.632 L11.637,13.884 L12.503,10.632 L13.640,10.632 L14.471,13.940 L15.198,10.632 L16.160,10.632 L15.010,15.367 L13.995,15.367 ZM7.751,15.367 L6.807,11.827 L5.867,15.367 L4.830,15.367 L3.700,10.632 L4.679,10.632 L5.393,13.884 L6.258,10.632 L7.395,10.632 L8.226,13.940 L8.953,10.632 L9.916,10.632 L8.765,15.367 L7.751,15.367 Z" class="cls-1"/>
</svg>
