<svg xmlns="http://www.w3.org/2000/svg" xmlns:xlink="http://www.w3.org/1999/xlink" preserveAspectRatio="xMidYMid" width="14" height="14" viewBox="0 0 14 14">
  <defs>
    <style>
      .cls-1 {
        fill: #fff;
        fill-rule: evenodd;
      }
    </style>
  </defs>
  <path d="M13.993,11.049 C14.023,11.276 13.953,11.474 13.785,11.642 L11.814,13.599 C11.725,13.698 11.609,13.782 11.466,13.851 C11.323,13.921 11.182,13.965 11.044,13.985 C11.034,13.985 11.004,13.987 10.955,13.992 C10.905,13.997 10.841,14.000 10.762,14.000 C10.574,14.000 10.271,13.967 9.851,13.903 C9.431,13.839 8.917,13.681 8.309,13.429 C7.702,13.177 7.012,12.798 6.242,12.294 C5.471,11.790 4.651,11.098 3.782,10.218 C3.090,9.536 2.517,8.883 2.062,8.260 C1.608,7.637 1.242,7.062 0.966,6.533 C0.689,6.004 0.481,5.524 0.343,5.094 C0.205,4.664 0.111,4.293 0.061,3.982 C0.012,3.670 -0.008,3.426 0.002,3.248 C0.012,3.070 0.017,2.971 0.017,2.951 C0.037,2.813 0.081,2.672 0.150,2.528 C0.220,2.385 0.304,2.269 0.402,2.180 L2.374,0.207 C2.512,0.069 2.670,-0.000 2.848,-0.000 C2.976,-0.000 3.090,0.037 3.189,0.111 C3.287,0.185 3.371,0.277 3.441,0.385 L5.026,3.396 C5.115,3.554 5.140,3.727 5.101,3.915 C5.061,4.103 4.977,4.261 4.849,4.390 L4.122,5.116 C4.103,5.136 4.085,5.168 4.070,5.213 C4.056,5.257 4.048,5.294 4.048,5.324 C4.088,5.532 4.177,5.769 4.315,6.036 C4.434,6.273 4.616,6.562 4.863,6.903 C5.110,7.244 5.461,7.637 5.916,8.082 C6.360,8.537 6.755,8.891 7.101,9.143 C7.447,9.395 7.736,9.580 7.968,9.699 C8.201,9.818 8.378,9.889 8.502,9.914 L8.687,9.951 C8.707,9.951 8.739,9.943 8.783,9.929 C8.828,9.914 8.860,9.897 8.880,9.877 L9.725,9.017 C9.902,8.858 10.110,8.780 10.347,8.780 C10.515,8.780 10.648,8.809 10.747,8.868 L10.762,8.868 L13.622,10.559 C13.830,10.688 13.953,10.851 13.993,11.049 Z" class="cls-1"/>
</svg>
